<?xml version="1.0" encoding="utf-8"?>
<!-- Generator: Adobe Illustrator 16.0.0, SVG Export Plug-In . SVG Version: 6.00 Build 0)  -->
<!DOCTYPE svg PUBLIC "-//W3C//DTD SVG 1.1//EN" "http://www.w3.org/Graphics/SVG/1.1/DTD/svg11.dtd">
<svg version="1.1" id="Ebene_1" xmlns="http://www.w3.org/2000/svg" xmlns:xlink="http://www.w3.org/1999/xlink" x="0px" y="0px"
	 width="425.197px" height="425.197px" viewBox="0 0 425.197 425.197" style="enable-background:new 0 0 425.197 425.197;"
	 xml:space="preserve">
<style type="text/css">
<![CDATA[
	.st0{fill:#249CC6;}
	.st1{fill:#FFFFFF;}
	.st2{fill:#372E75;}
]]>
</style>
<g>
	<circle class="st2" cx="212.616" cy="213.134" r="184.292"/>
</g>
<g>
	<path class="st1" d="M212.616,28.842c101.781,0,184.292,82.51,184.292,184.292s-82.511,184.292-184.292,184.292
		c-101.781,0-184.292-82.51-184.292-184.292S110.835,28.842,212.616,28.842 M212.616,19.842c-26.09,0-51.405,5.112-75.24,15.193
		c-23.019,9.736-43.689,23.672-61.437,41.42c-17.75,17.749-31.686,38.419-41.421,61.437c-10.082,23.836-15.194,49.15-15.194,75.241
		s5.112,51.405,15.194,75.241c9.735,23.018,23.671,43.688,41.421,61.437c17.748,17.749,38.418,31.685,61.437,41.42
		c23.835,10.082,49.149,15.193,75.24,15.193c26.09,0,51.404-5.112,75.24-15.193c23.02-9.736,43.689-23.672,61.438-41.42
		c17.749-17.749,31.685-38.419,41.421-61.437c10.081-23.836,15.193-49.15,15.193-75.241s-5.112-51.405-15.193-75.241
		c-9.736-23.018-23.672-43.688-41.421-61.437c-17.748-17.749-38.418-31.685-61.438-41.42
		C264.02,24.954,238.706,19.842,212.616,19.842L212.616,19.842z"/>
</g>
<g>
	<path class="st0" d="M212.616,420.384c-114.278,0-207.25-92.972-207.25-207.25S98.337,5.884,212.616,5.884
		s207.25,92.972,207.25,207.25S326.894,420.384,212.616,420.384z M212.616,19.884c-106.559,0-193.25,86.691-193.25,193.25
		s86.691,193.25,193.25,193.25c106.559,0,193.25-86.691,193.25-193.25S319.174,19.884,212.616,19.884z"/>
</g>
<g>
	<path class="st1" d="M310.262,238.743c-0.049,0-0.096,0.003-0.145,0.004c-0.049,0-0.097-0.004-0.146-0.004H115.267
		c-20.218,0-36.667,16.448-36.667,36.666s16.449,36.666,36.667,36.666h194.705c0.049,0,0.097-0.003,0.146-0.004
		c0.049,0,0.096,0.004,0.145,0.004c20.219,0,36.668-16.448,36.668-36.666S330.481,238.743,310.262,238.743z M281.598,275.409
		c0-15.758,12.78-28.583,28.52-28.662c15.738,0.079,28.52,12.904,28.52,28.662s-12.781,28.583-28.52,28.662
		C294.378,303.993,281.598,291.167,281.598,275.409z M144.227,275.409c0,15.807-12.86,28.666-28.666,28.666
		c-15.808,0-28.667-12.859-28.667-28.666s12.859-28.666,28.667-28.666C131.367,246.743,144.227,259.603,144.227,275.409z
		 M138.383,304.075c8.428-6.724,13.844-17.071,13.844-28.666s-5.416-21.942-13.844-28.666h149.058
		c-8.427,6.724-13.843,17.071-13.843,28.666s5.416,21.942,13.843,28.666H138.383z"/>
	<path class="st1" d="M113.646,218.357h35.724h126.5h35.725c9.601,0,17.411-7.811,17.411-17.412c0-9.601-7.811-17.412-17.411-17.412
		H275.87h-126.5h-35.724c-9.602,0-17.413,7.811-17.413,17.412C96.233,210.546,104.044,218.357,113.646,218.357z M311.594,191.534
		c5.189,0,9.411,4.222,9.411,9.412c0,5.19-4.222,9.412-9.411,9.412H275.87v-18.824H311.594z M267.87,191.534v18.824h-110.5v-18.824
		H267.87z M113.646,191.534h35.724v18.824h-35.724c-5.19,0-9.413-4.222-9.413-9.412
		C104.233,195.756,108.456,191.534,113.646,191.534z"/>
	<path class="st1" d="M143.413,165.442h35.743h71.068h31.603c9.788,0,17.751-7.963,17.751-17.752v-24.244
		c0-9.789-7.963-17.752-17.751-17.752h-33.503c-7.447-10.234-19.771-16.284-33.43-16.284c-13.888,0-26.359,6.05-33.834,16.284
		h-37.646c-9.788,0-17.752,7.963-17.752,17.752v24.244C125.661,157.479,133.625,165.442,143.413,165.442z M291.577,123.446v24.244
		c0,5.377-4.375,9.752-9.751,9.752h-31.603v-43.748h31.603C287.202,113.694,291.577,118.068,291.577,123.446z M187.155,110.91
		c5.859-8.355,16.372-13.5,27.738-13.5c11.307,0,21.434,5.023,27.33,13.496v46.537h-55.068V110.91z M133.661,123.446
		c0-5.377,4.375-9.752,9.752-9.752h35.743v43.748h-35.743c-5.377,0-9.752-4.375-9.752-9.752V123.446z"/>
</g>
</svg>
